<?xml version="1.0" standalone="no"?>
<!DOCTYPE svg PUBLIC "-//W3C//DTD SVG 20010904//EN"
 "http://www.w3.org/TR/2001/REC-SVG-20010904/DTD/svg10.dtd">
<svg version="1.0" xmlns="http://www.w3.org/2000/svg"
 width="457.000000pt" height="404.000000pt" viewBox="0 0 457.000000 404.000000"
 preserveAspectRatio="xMidYMid meet">
<metadata>
Created by potrace 1.16, written by Peter Selinger 2001-2019
</metadata>
<g transform="translate(0.000000,404.000000) scale(0.100000,-0.100000)"
fill="#000000" stroke="none">
<path d="M1957 3792 c-4 -5 -24 -12 -45 -16 -60 -9 -273 -119 -298 -153 -11
-15 -26 -50 -33 -78 -7 -27 -17 -59 -21 -70 -22 -52 -35 -263 -21 -340 6 -33
14 -109 17 -170 8 -136 44 -312 85 -409 17 -40 56 -106 86 -147 60 -80 78
-124 68 -170 -4 -16 -2 -29 3 -29 5 0 14 -11 20 -24 29 -64 124 -142 192 -157
39 -9 44 -7 88 29 26 21 94 69 151 108 121 81 206 155 228 198 9 17 19 33 22
36 13 11 60 162 55 178 -5 13 -4 14 4 4 7 -11 10 -10 16 3 8 23 8 27 -4 20
-10 -6 -11 -4 -15 50 -3 50 24 72 42 33 8 -19 12 -13 27 46 29 117 59 472 53
630 l-6 138 -33 33 c-52 51 -117 88 -133 75 -9 -8 -14 -7 -18 5 -4 8 -13 12
-22 9 -10 -4 -15 0 -15 14 0 33 -83 108 -140 127 -27 9 -52 21 -55 26 -8 12
-45 12 -45 -1 0 -5 -15 -7 -32 -4 -71 12 -216 16 -221 6z m153 -410 c3 -2 5
-18 5 -35 0 -29 4 -32 50 -45 28 -8 76 -32 109 -53 32 -21 62 -39 67 -39 5 0
9 -8 9 -17 0 -12 -3 -14 -10 -7 -7 7 -40 9 -85 6 -49 -3 -80 -1 -89 7 -8 7
-17 8 -20 3 -3 -5 -16 -7 -29 -5 -20 4 -26 0 -32 -24 -9 -35 -7 -119 7 -192 5
-31 10 -64 10 -73 -1 -11 7 -18 18 -18 26 0 50 -27 50 -56 0 -29 -9 -30 -55
-4 -19 11 -35 15 -35 10 0 -15 -63 -11 -84 5 -17 13 -21 13 -32 -4 -9 -13 -21
-17 -40 -13 -17 3 -25 1 -21 -5 4 -6 -2 -13 -12 -16 -20 -5 -64 -84 -75 -134
-4 -17 -1 -43 8 -64 11 -25 12 -45 6 -65 -4 -16 -9 -23 -9 -16 -1 7 -16 34
-35 60 -25 36 -31 53 -25 69 6 17 0 29 -32 61 -33 32 -40 47 -42 83 -2 24 -6
50 -11 57 -14 23 -14 61 0 66 8 3 14 15 14 27 0 20 1 21 18 6 18 -16 101 -33
142 -29 20 2 22 0 10 -8 -13 -8 -13 -10 2 -10 9 0 18 4 20 8 2 5 15 12 31 16
26 6 27 5 22 -22 -3 -21 -1 -29 10 -29 8 0 15 9 15 20 0 10 9 31 20 47 11 15
26 65 34 111 l15 84 -25 23 c-16 14 -33 20 -47 17 -12 -3 -62 -7 -110 -9 l-88
-3 38 39 c21 22 57 53 81 69 35 25 41 34 36 54 -5 20 0 26 33 41 70 31 128 33
163 6z m340 -413 c0 -11 4 -18 9 -15 5 4 12 0 14 -6 4 -10 8 -9 17 2 9 12 10
2 6 -40 l-5 -55 13 55 c12 55 12 55 18 20 3 -19 2 -37 -2 -40 -10 -7 -23 -78
-22 -120 1 -47 -5 -76 -21 -92 -7 -7 -18 -25 -24 -40 -7 -16 -19 -28 -28 -28
-8 0 -15 -4 -15 -10 0 -5 5 -10 12 -10 6 0 9 -2 7 -5 -3 -2 -15 -2 -27 2 -17
4 -22 13 -22 42 -1 45 -15 24 -25 -37 -5 -32 -13 -46 -31 -54 -15 -7 -23 -17
-20 -25 4 -8 1 -11 -5 -8 -6 4 -8 14 -5 22 4 9 1 22 -6 31 -10 12 -10 16 0 19
6 3 12 9 12 14 0 5 -6 8 -12 7 -9 -2 -13 13 -12 52 0 30 -1 47 -3 38 -5 -22
-19 -23 -27 -3 -3 8 -14 15 -25 15 -11 0 -32 10 -46 23 l-27 23 21 24 c11 14
20 19 21 13 0 -7 5 -13 10 -13 6 0 20 -9 32 -20 29 -26 36 -17 9 11 -13 14
-21 36 -21 56 0 19 -4 32 -9 29 -4 -3 -14 7 -21 22 -18 36 -19 47 -10 63 7 11
12 11 27 -1 49 -40 93 -47 93 -14 0 13 35 20 83 16 10 -1 25 10 35 28 20 35
32 38 32 9z m-210 -414 c11 -13 15 -60 8 -112 -3 -26 -9 -28 -25 -12 -8 8 -11
7 -10 -2 1 -8 -2 -15 -7 -16 -5 -1 -13 -7 -17 -15 -6 -8 -12 -9 -16 -3 -5 6
-19 11 -32 13 -14 1 -36 8 -50 15 -21 10 -31 10 -51 0 -14 -7 -33 -11 -42 -9
-10 2 -18 1 -18 -3 0 -5 -15 -8 -32 -8 -18 0 -25 2 -15 4 9 3 17 13 17 23 0
25 18 35 58 31 48 -4 132 18 132 35 0 8 5 14 10 14 6 0 10 6 10 14 0 14 37 45
56 45 6 1 17 -6 24 -14z"/>
<path d="M2540 2314 c0 -11 7 -42 16 -68 19 -55 14 -131 -11 -169 -8 -13 -13
-31 -10 -39 4 -10 -19 -47 -62 -101 -37 -46 -103 -136 -146 -198 -144 -209
-243 -350 -261 -367 -16 -16 -17 -12 -15 67 2 55 8 88 17 97 7 8 9 14 3 14 -6
0 -7 29 -4 78 6 69 10 82 44 127 27 35 48 52 76 60 25 7 37 16 36 26 -2 11 7
15 32 15 19 0 35 -5 35 -11 0 -7 7 -12 15 -12 8 0 15 4 15 8 0 4 -41 46 -91
93 -77 72 -93 84 -103 71 -7 -10 -33 -16 -78 -19 -61 -3 -67 -1 -79 21 -27 51
-94 12 -182 -106 -38 -50 -72 -91 -77 -91 -5 0 7 39 25 87 28 71 36 106 41
192 l7 106 -59 -62 c-54 -57 -70 -67 -194 -119 -74 -31 -204 -78 -287 -106
-89 -28 -165 -59 -181 -73 -33 -27 -65 -115 -82 -221 -6 -37 -13 -70 -15 -74
-2 -3 -15 -94 -29 -201 -14 -108 -41 -272 -60 -365 -26 -129 -35 -203 -39
-314 -4 -102 -12 -179 -30 -260 -14 -63 -33 -169 -42 -235 -9 -66 -18 -130
-21 -143 l-4 -22 1554 0 1555 0 -5 33 c-3 17 -9 138 -15 267 -16 400 -25 497
-53 589 -14 47 -26 101 -26 120 0 34 -16 109 -75 361 -13 58 -34 168 -45 245
-24 152 -45 215 -82 238 -12 8 -77 27 -143 42 -339 77 -666 210 -741 301 -22
25 -58 67 -81 93 -35 38 -43 42 -43 25z m-641 -521 c12 -13 16 -36 16 -97 0
-83 -11 -120 -81 -265 l-21 -45 -11 77 c-7 43 -15 121 -18 175 -6 95 -6 98 22
140 24 36 32 42 52 37 14 -3 32 -13 41 -22z m1102 -452 c-10 -7 -10 -10 -1
-16 7 -4 15 -3 19 2 4 7 15 7 29 2 l24 -9 -21 -26 c-28 -35 -26 -42 7 -37 23
3 24 2 7 -6 -14 -7 -15 -10 -5 -10 12 -1 13 -3 1 -10 -7 -5 -10 -14 -7 -20 7
-10 2 -12 -41 -15 -19 -1 -20 10 -7 53 6 20 4 23 -10 18 -10 -4 -24 -7 -32 -7
-8 0 -14 -7 -14 -15 0 -8 -5 -15 -10 -15 -6 0 -10 -8 -8 -17 2 -15 -4 -18 -37
-17 -22 0 -52 4 -67 8 -24 7 -29 5 -37 -15 -5 -13 -10 -17 -10 -9 -1 23 11 36
51 57 21 11 34 24 30 28 -4 5 1 5 11 2 10 -4 16 -3 13 2 -8 13 26 37 53 39
l24 1 -23 -16 c-56 -39 -74 -84 -37 -91 14 -3 17 2 13 22 -4 20 1 29 25 43 29
17 45 46 41 71 -2 6 5 12 15 12 14 0 15 -2 4 -9z"/>
</g>
</svg>
